{
  "accessors": [
    {
      "bufferView": 2,
      "componentType": 5126,
      "count": 19152,
      "max": [
        0.7020300030708313,
        1.6295499801635742,
        0.0715700015425682
      ],
      "min": [
        -0.701960027217865,
        -0.014820000156760216,
        -0.22617000341415405
      ],
      "type": "VEC3"
    },
    {
      "bufferView": 2,
      "byteOffset": 229824,
      "componentType": 5126,
      "count": 19152,
      "max": [
        0.9999794363975525,
        0.9999950528144836,
        0.9999930262565613
      ],
      "min": [
        -0.9999794363975525,
        -0.9996123909950256,
        -0.9999818205833435
      ],
      "type": "VEC3"
    },
    {
      "bufferView": 1,
      "componentType": 5126,
      "count": 19152,
      "max": [
        0.9915400147438049,
        0.9997000098228455
      ],
      "min": [
        0.0003000000142492354,
        0.0003000000142492354
      ],
      "type": "VEC2"
    },
    {
      "bufferView": 0,
      "componentType": 5125,
      "count": 108204,
      "type": "SCALAR"
    },
    {
      "bufferView": 2,
      "byteOffset": 459648,
      "componentType": 5126,
      "count": 1118,
      "max": [
        0.10035999864339828,
        1.4901700019836426,
        0.05640000104904175
      ],
      "min": [
        -0.10029000043869019,
        1.4072999954223633,
        -0.02622999995946884
      ],
      "type": "VEC3"
    },
    {
      "bufferView": 2,
      "byteOffset": 473064,
      "componentType": 5126,
      "count": 1118,
      "max": [
        0.9997164607048035,
        0.9971155524253845,
        0.9991660714149475
      ],
      "min": [
        -0.9997164607048035,
        -0.9994829893112183,
        -0.9969272613525391
      ],
      "type": "VEC3"
    },
    {
      "bufferView": 0,
      "byteOffset": 432816,
      "componentType": 5125,
      "count": 6684,
      "type": "SCALAR"
    },
    {
      "bufferView": 2,
      "byteOffset": 486480,
      "componentType": 5126,
      "count": 2724,
      "max": [
        0.10272999852895737,
        1.4957900047302246,
        0.0536700002849102
      ],
      "min": [
        -0.10266999900341034,
        1.405329942703247,
        -0.041850000619888306
      ],
      "type": "VEC3"
    },
    {
      "bufferView": 2,
      "byteOffset": 519168,
      "componentType": 5126,
      "count": 2724,
      "max": [
        0.9996546506881714,
        0.9991604685783386,
        0.999742865562439
      ],
      "min": [
        -0.9996546506881714,
        -0.9996998906135559,
        -0.9987311959266663
      ],
      "type": "VEC3"
    },
    {
      "bufferView": 1,
      "byteOffset": 153216,
      "componentType": 5126,
      "count": 2724,
      "max": [
        0.0,
        0.0
      ],
      "min": [
        0.0,
        0.0
      ],
      "type": "VEC2"
    },
    {
      "bufferView": 0,
      "byteOffset": 459552,
      "componentType": 5125,
      "count": 16320,
      "type": "SCALAR"
    }
  ],
  "asset": {
    "extras": {
      "author": "sigifredo.valencia.ensinales (https://sketchfab.com/sigifredo.valencia.ensinales)",
      "license": "CC-BY-4.0 (http://creativecommons.org/licenses/by/4.0/)",
      "source": "https://sketchfab.com/3d-models/alien-bc4db76ad4b54451b07d035cdaeed7de",
      "title": "Alien"
    },
    "generator": "Sketchfab-12.68.0",
    "version": "2.0"
  },
  "bufferViews": [
    {
      "buffer": 0,
      "byteLength": 524832,
      "name": "floatBufferViews",
      "target": 34963
    },
    {
      "buffer": 0,
      "byteLength": 175008,
      "byteOffset": 524832,
      "byteStride": 8,
      "name": "floatBufferViews",
      "target": 34962
    },
    {
      "buffer": 0,
      "byteLength": 551856,
      "byteOffset": 699840,
      "byteStride": 12,
      "name": "floatBufferViews",
      "target": 34962
    }
  ],
  "buffers": [
    {
      "byteLength": 1251696,
      "uri": "scene.bin"
    }
  ],
  "images": [
    {
      "uri": "textures/PIEL.001_normal.png"
    },
    {
      "uri": "textures/Material_baseColor.png"
    }
  ],
  "materials": [
    {
      "doubleSided": true,
      "name": "PIEL.001",
      "normalTexture": {
        "index": 0
      },
      "pbrMetallicRoughness": {
        "metallicFactor": 0.0,
        "roughnessFactor": 0.6
      }
    },
    {
      "doubleSided": true,
      "name": "Material.002",
      "pbrMetallicRoughness": {
        "baseColorFactor": [
          0.0,
          0.0,
          0.0,
          1.0
        ],
        "metallicFactor": 0.0,
        "roughnessFactor": 0.6
      }
    },
    {
      "doubleSided": true,
      "name": "Material",
      "pbrMetallicRoughness": {
        "baseColorFactor": [
          0.6549761674576305,
          0.6549761674576305,
          0.6549761674576305,
          1.0
        ],
        "baseColorTexture": {
          "index": 1
        },
        "metallicFactor": 0.0,
        "roughnessFactor": 0.6
      }
    }
  ],
  "meshes": [
    {
      "name": "Group41073_0",
      "primitives": [
        {
          "attributes": {
            "NORMAL": 1,
            "POSITION": 0,
            "TEXCOORD_0": 2
          },
          "indices": 3,
          "material": 2,
          "mode": 4
        }
      ]
    },
    {
      "name": "Group32537_0",
      "primitives": [
        {
          "attributes": {
            "NORMAL": 5,
            "POSITION": 4
          },
          "indices": 6,
          "material": 1,
          "mode": 4
        }
      ]
    },
    {
      "name": "Group18714_0",
      "primitives": [
        {
          "attributes": {
            "NORMAL": 8,
            "POSITION": 7,
            "TEXCOORD_0": 9
          },
          "indices": 10,
          "material": 0,
          "mode": 4
        }
      ]
    }
  ],
  "nodes": [
    {
      "children": [
        1
      ],
      "matrix": [
        1.0,
        0.0,
        0.0,
        0.0,
        0.0,
        2.220446049250313e-16,
        -1.0,
        0.0,
        0.0,
        1.0,
        2.220446049250313e-16,
        0.0,
        0.0,
        0.0,
        0.0,
        1.0
      ],
      "name": "Sketchfab_model"
    },
    {
      "children": [
        2,
        4,
        6,
        8
      ],
      "name": "Root"
    },
    {
      "children": [
        3
      ],
      "matrix": [
        0.9630000000000001,
        -0.14461000000000002,
        -0.22743000000000005,
        0.0,
        0.26047000000000003,
        0.28266,
        0.92318,
        0.0,
        -0.06922000000000003,
        -0.94826,
        0.3098700000000001,
        0.0,
        -0.6210600000000001,
        8.50238,
        11.91146,
        1.0
      ],
      "name": "Lamp"
    },
    {
      "name": "Lamp"
    },
    {
      "children": [
        5
      ],
      "matrix": [
        4.01046,
        0.0,
        0.0,
        0.0,
        0.0,
        -0.0,
        4.01046,
        0.0,
        0.0,
        -4.01046,
        -0.0,
        0.0,
        0.0,
        0.0,
        0.0,
        1.0
      ],
      "name": "Group41073"
    },
    {
      "mesh": 0,
      "name": "Group41073_0"
    },
    {
      "children": [
        7
      ],
      "matrix": [
        4.01046,
        0.0,
        0.0,
        0.0,
        0.0,
        -0.0,
        4.01046,
        0.0,
        0.0,
        -4.01046,
        -0.0,
        0.0,
        0.0,
        0.0,
        0.0,
        1.0
      ],
      "name": "Group32537"
    },
    {
      "mesh": 1,
      "name": "Group32537_0"
    },
    {
      "children": [
        9
      ],
      "matrix": [
        4.01046,
        0.0,
        0.0,
        0.0,
        0.0,
        -0.0,
        4.01046,
        0.0,
        0.0,
        -4.01046,
        -0.0,
        0.0,
        0.0,
        0.0,
        0.0,
        1.0
      ],
      "name": "Group18714"
    },
    {
      "mesh": 2,
      "name": "Group18714_0"
    }
  ],
  "samplers": [
    {
      "magFilter": 9729,
      "minFilter": 9987,
      "wrapS": 10497,
      "wrapT": 10497
    }
  ],
  "scene": 0,
  "scenes": [
    {
      "name": "Sketchfab_Scene",
      "nodes": [
        0
      ]
    }
  ],
  "textures": [
    {
      "sampler": 0,
      "source": 0
    },
    {
      "sampler": 0,
      "source": 1
    }
  ]
}
